# xmcd
#
# Track frame offsets: 
#        150
#        13140
#        27102
#        41182
#        56040
#        69037
#        80897
#        95100
#        109365
#        122990
#        136812
#        151162
#        164125
#        177172
#        190022
#        204962
#        219012
#        230130
#        244765
#        259097
#        274250
#        289620
#        302305
#        315547
#
# Disc length: 4380 seconds
#
# Revision: 0
# Processed by: cddbd v1.5.2PL0 Copyright (c) Steve Scherf et al.
# Submitted via: ExactAudioCopy v1.0b1
#
DISCID=57111a18
DTITLE=Cow Cow Davenport - Volume 1 (1925-1929)
DYEAR=1992
DGENRE=Blues
TTITLE0=Cow Cow Blues
TTITLE1=Alabama Mis-Treater
TTITLE2=Jim Crow Blues
TTITLE3=Goin' Home Blues
TTITLE4=New Cow Cow Blues
TTITLE5=Stealin' Blues
TTITLE6=Cow Cow Blues (Take A)
TTITLE7=Cow Cow Blues (Take B)
TTITLE8=State Street Jive (Take A)
TTITLE9=State Street Jive (Take B)
TTITLE10=Chimin' The Blues
TTITLE11=Alabama Strut
TTITLE12=Alabama Mistreater
TTITLE13=Dirty Ground Hog Blues
TTITLE14=Chimes Blues
TTITLE15=Struttin' The Blues
TTITLE16=Givin' It Away
TTITLE17=Slow Drag
TTITLE18=Atlanta Rag
TTITLE19=That'll Get It
TTITLE20=I'm Gonna Tell You In Front So You Won't Feel Hurt Behind
TTITLE21=State Street Blues
TTITLE22=Back In The Alley
TTITLE23=Mootch Piddle
EXTD=
EXTT0=
EXTT1=
EXTT2=
EXTT3=
EXTT4=
EXTT5=
EXTT6=
EXTT7=
EXTT8=
EXTT9=
EXTT10=
EXTT11=
EXTT12=
EXTT13=
EXTT14=
EXTT15=
EXTT16=
EXTT17=
EXTT18=
EXTT19=
EXTT20=
EXTT21=
EXTT22=
EXTT23=
PLAYORDER=
